<svg width="211" height="54" viewBox="0 0 211 54" fill="none" xmlns="http://www.w3.org/2000/svg">
<path d="M7.9846 41.5193C7.9846 41.5193 5.00028 36.747 11.3133 33.3447C13.6791 31.9825 13.6791 28.5723 13.6791 28.5723C13.6791 28.5723 1.95031 32.6268 7.9846 41.5193Z" fill="white"/>
<path d="M6.72004 41.6074C-13.0069 23.8979 16.978 13 16.978 13C16.978 13 17.7681 19.1295 9.87714 23.8959C-3.53561 32.7527 6.72004 41.6074 6.72004 41.6074Z" fill="white"/>
<path d="M10.6674 44.3323C10.6674 44.3323 -1.16857 36.8397 12.2465 27.9889C13.358 27.303 14.2367 26.3729 14.7916 25.2952C15.3465 24.2174 15.5574 23.0312 15.4024 21.8594C15.4024 21.8594 -8.26828 30.7082 10.6674 44.3293" fill="white"/>
<path d="M44.116 40.324C42.484 40.324 41.02 40.036 39.724 39.46C38.428 38.86 37.396 38.056 36.628 37.048C35.884 36.04 35.476 34.924 35.404 33.7H40.48C40.576 34.468 40.948 35.104 41.596 35.608C42.268 36.112 43.096 36.364 44.08 36.364C45.04 36.364 45.784 36.172 46.312 35.788C46.864 35.404 47.14 34.912 47.14 34.312C47.14 33.664 46.804 33.184 46.132 32.872C45.484 32.536 44.44 32.176 43 31.792C41.512 31.432 40.288 31.06 39.328 30.676C38.392 30.292 37.576 29.704 36.88 28.912C36.208 28.12 35.872 27.052 35.872 25.708C35.872 24.604 36.184 23.596 36.808 22.684C37.456 21.772 38.368 21.052 39.544 20.524C40.744 19.996 42.148 19.732 43.756 19.732C46.132 19.732 48.028 20.332 49.444 21.532C50.86 22.708 51.64 24.304 51.784 26.32H46.96C46.888 25.528 46.552 24.904 45.952 24.448C45.376 23.968 44.596 23.728 43.612 23.728C42.7 23.728 41.992 23.896 41.488 24.232C41.008 24.568 40.768 25.036 40.768 25.636C40.768 26.308 41.104 26.824 41.776 27.184C42.448 27.52 43.492 27.868 44.908 28.228C46.348 28.588 47.536 28.96 48.472 29.344C49.408 29.728 50.212 30.328 50.884 31.144C51.58 31.936 51.94 32.992 51.964 34.312C51.964 35.464 51.64 36.496 50.992 37.408C50.368 38.32 49.456 39.04 48.256 39.568C47.08 40.072 45.7 40.324 44.116 40.324ZM54.8052 29.956C54.8052 27.94 55.2012 26.152 55.9932 24.592C56.8092 23.032 57.9012 21.832 59.2692 20.992C60.6612 20.152 62.2092 19.732 63.9132 19.732C65.4012 19.732 66.6972 20.032 67.8012 20.632C68.9292 21.232 69.8292 21.988 70.5012 22.9V20.056H75.5772V40H70.5012V37.084C69.8532 38.02 68.9532 38.8 67.8012 39.424C66.6732 40.024 65.3652 40.324 63.8772 40.324C62.1972 40.324 60.6612 39.892 59.2692 39.028C57.9012 38.164 56.8092 36.952 55.9932 35.392C55.2012 33.808 54.8052 31.996 54.8052 29.956ZM70.5012 30.028C70.5012 28.804 70.2612 27.76 69.7812 26.896C69.3012 26.008 68.6532 25.336 67.8372 24.88C67.0212 24.4 66.1452 24.16 65.2092 24.16C64.2732 24.16 63.4092 24.388 62.6172 24.844C61.8252 25.3 61.1772 25.972 60.6732 26.86C60.1932 27.724 59.9532 28.756 59.9532 29.956C59.9532 31.156 60.1932 32.212 60.6732 33.124C61.1772 34.012 61.8252 34.696 62.6172 35.176C63.4332 35.656 64.2972 35.896 65.2092 35.896C66.1452 35.896 67.0212 35.668 67.8372 35.212C68.6532 34.732 69.3012 34.06 69.7812 33.196C70.2612 32.308 70.5012 31.252 70.5012 30.028ZM91.7316 19.768C93.2436 19.768 94.5876 20.104 95.7636 20.776C96.9396 21.424 97.8516 22.396 98.4996 23.692C99.1716 24.964 99.5076 26.5 99.5076 28.3V40H94.4676V28.984C94.4676 27.4 94.0716 26.188 93.2796 25.348C92.4876 24.484 91.4076 24.052 90.0396 24.052C88.6476 24.052 87.5436 24.484 86.7276 25.348C85.9356 26.188 85.5396 27.4 85.5396 28.984V40H80.4996V13.36H85.5396V22.54C86.1876 21.676 87.0516 21.004 88.1316 20.524C89.2116 20.02 90.4116 19.768 91.7316 19.768ZM103.004 29.956C103.004 27.94 103.4 26.152 104.192 24.592C105.008 23.032 106.1 21.832 107.468 20.992C108.86 20.152 110.408 19.732 112.112 19.732C113.6 19.732 114.896 20.032 116 20.632C117.128 21.232 118.028 21.988 118.7 22.9V20.056H123.776V40H118.7V37.084C118.052 38.02 117.152 38.8 116 39.424C114.872 40.024 113.564 40.324 112.076 40.324C110.396 40.324 108.86 39.892 107.468 39.028C106.1 38.164 105.008 36.952 104.192 35.392C103.4 33.808 103.004 31.996 103.004 29.956ZM118.7 30.028C118.7 28.804 118.46 27.76 117.98 26.896C117.5 26.008 116.852 25.336 116.036 24.88C115.22 24.4 114.344 24.16 113.408 24.16C112.472 24.16 111.608 24.388 110.816 24.844C110.024 25.3 109.376 25.972 108.872 26.86C108.392 27.724 108.152 28.756 108.152 29.956C108.152 31.156 108.392 32.212 108.872 33.124C109.376 34.012 110.024 34.696 110.816 35.176C111.632 35.656 112.496 35.896 113.408 35.896C114.344 35.896 115.22 35.668 116.036 35.212C116.852 34.732 117.5 34.06 117.98 33.196C118.46 32.308 118.7 31.252 118.7 30.028ZM147.779 20.056L135.431 49.432H130.067L134.387 39.496L126.395 20.056H132.047L137.195 33.988L142.415 20.056H147.779ZM149.2 29.956C149.2 27.94 149.596 26.152 150.388 24.592C151.204 23.032 152.296 21.832 153.664 20.992C155.056 20.152 156.604 19.732 158.308 19.732C159.796 19.732 161.092 20.032 162.196 20.632C163.324 21.232 164.224 21.988 164.896 22.9V20.056H169.972V40H164.896V37.084C164.248 38.02 163.348 38.8 162.196 39.424C161.068 40.024 159.76 40.324 158.272 40.324C156.592 40.324 155.056 39.892 153.664 39.028C152.296 38.164 151.204 36.952 150.388 35.392C149.596 33.808 149.2 31.996 149.2 29.956ZM164.896 30.028C164.896 28.804 164.656 27.76 164.176 26.896C163.696 26.008 163.048 25.336 162.232 24.88C161.416 24.4 160.54 24.16 159.604 24.16C158.668 24.16 157.804 24.388 157.012 24.844C156.22 25.3 155.572 25.972 155.068 26.86C154.588 27.724 154.348 28.756 154.348 29.956C154.348 31.156 154.588 32.212 155.068 33.124C155.572 34.012 156.22 34.696 157.012 35.176C157.828 35.656 158.692 35.896 159.604 35.896C160.54 35.896 161.416 35.668 162.232 35.212C163.048 34.732 163.696 34.06 164.176 33.196C164.656 32.308 164.896 31.252 164.896 30.028ZM180.762 24.196V33.844C180.762 34.516 180.918 35.008 181.23 35.32C181.566 35.608 182.118 35.752 182.886 35.752H185.226V40H182.058C177.81 40 175.686 37.936 175.686 33.808V24.196H173.31V20.056H175.686V15.124H180.762V20.056H185.226V24.196H180.762ZM187.555 29.956C187.555 27.94 187.951 26.152 188.743 24.592C189.559 23.032 190.651 21.832 192.019 20.992C193.411 20.152 194.959 19.732 196.663 19.732C198.151 19.732 199.447 20.032 200.551 20.632C201.679 21.232 202.579 21.988 203.251 22.9V20.056H208.327V40H203.251V37.084C202.603 38.02 201.703 38.8 200.551 39.424C199.423 40.024 198.115 40.324 196.627 40.324C194.947 40.324 193.411 39.892 192.019 39.028C190.651 38.164 189.559 36.952 188.743 35.392C187.951 33.808 187.555 31.996 187.555 29.956ZM203.251 30.028C203.251 28.804 203.011 27.76 202.531 26.896C202.051 26.008 201.403 25.336 200.587 24.88C199.771 24.4 198.895 24.16 197.959 24.16C197.023 24.16 196.159 24.388 195.367 24.844C194.575 25.3 193.927 25.972 193.423 26.86C192.943 27.724 192.703 28.756 192.703 29.956C192.703 31.156 192.943 32.212 193.423 33.124C193.927 34.012 194.575 34.696 195.367 35.176C196.183 35.656 197.047 35.896 197.959 35.896C198.895 35.896 199.771 35.668 200.587 35.212C201.403 34.732 202.051 34.06 202.531 33.196C203.011 32.308 203.251 31.252 203.251 30.028Z" fill="white"/>
</svg>
