<svg width="187" height="48" viewBox="0 0 187 48" fill="none" xmlns="http://www.w3.org/2000/svg">
<path d="M6.96522 36.8787C6.96522 36.8787 4.36189 32.7156 9.86898 29.7476C11.9328 28.5594 11.9328 25.5845 11.9328 25.5845C11.9328 25.5845 1.70128 29.1214 6.96522 36.8787Z" fill="white"/>
<path d="M5.86214 36.9553C-11.3464 21.5067 14.8105 12 14.8105 12C14.8105 12 15.4998 17.347 8.61619 21.5049C-3.08424 29.231 5.86214 36.9553 5.86214 36.9553Z" fill="white"/>
<path d="M9.30547 39.3325C9.30547 39.3325 -1.01944 32.7964 10.683 25.0755C11.6526 24.4772 12.4191 23.6659 12.9032 22.7257C13.3873 21.7855 13.5712 20.7507 13.436 19.7285C13.436 19.7285 -7.21278 27.4476 9.30547 39.3299" fill="white"/>
<path d="M37.992 35.288C36.5413 35.288 35.24 35.032 34.088 34.52C32.936 33.9867 32.0187 33.272 31.336 32.376C30.6747 31.48 30.312 30.488 30.248 29.4H34.76C34.8453 30.0827 35.176 30.648 35.752 31.096C36.3493 31.544 37.0853 31.768 37.96 31.768C38.8133 31.768 39.4747 31.5973 39.944 31.256C40.4347 30.9147 40.68 30.4773 40.68 29.944C40.68 29.368 40.3813 28.9413 39.784 28.664C39.208 28.3653 38.28 28.0453 37 27.704C35.6773 27.384 34.5893 27.0533 33.736 26.712C32.904 26.3707 32.1787 25.848 31.56 25.144C30.9627 24.44 30.664 23.4907 30.664 22.296C30.664 21.3147 30.9413 20.4187 31.496 19.608C32.072 18.7973 32.8827 18.1573 33.928 17.688C34.9947 17.2187 36.2427 16.984 37.672 16.984C39.784 16.984 41.4693 17.5173 42.728 18.584C43.9867 19.6293 44.68 21.048 44.808 22.84H40.52C40.456 22.136 40.1573 21.5813 39.624 21.176C39.112 20.7493 38.4187 20.536 37.544 20.536C36.7333 20.536 36.104 20.6853 35.656 20.984C35.2293 21.2827 35.016 21.6987 35.016 22.232C35.016 22.8293 35.3147 23.288 35.912 23.608C36.5093 23.9067 37.4373 24.216 38.696 24.536C39.976 24.856 41.032 25.1867 41.864 25.528C42.696 25.8693 43.4107 26.4027 44.008 27.128C44.6267 27.832 44.9467 28.7707 44.968 29.944C44.968 30.968 44.68 31.8853 44.104 32.696C43.5493 33.5067 42.7387 34.1467 41.672 34.616C40.6267 35.064 39.4 35.288 37.992 35.288ZM47.4935 26.072C47.4935 24.28 47.8455 22.6907 48.5495 21.304C49.2748 19.9173 50.2455 18.8507 51.4615 18.104C52.6988 17.3573 54.0748 16.984 55.5895 16.984C56.9122 16.984 58.0642 17.2507 59.0455 17.784C60.0482 18.3173 60.8482 18.9893 61.4455 19.8V17.272H65.9575V35H61.4455V32.408C60.8695 33.24 60.0695 33.9333 59.0455 34.488C58.0428 35.0213 56.8802 35.288 55.5575 35.288C54.0642 35.288 52.6988 34.904 51.4615 34.136C50.2455 33.368 49.2748 32.2907 48.5495 30.904C47.8455 29.496 47.4935 27.8853 47.4935 26.072ZM61.4455 26.136C61.4455 25.048 61.2322 24.12 60.8055 23.352C60.3788 22.5627 59.8028 21.9653 59.0775 21.56C58.3522 21.1333 57.5735 20.92 56.7415 20.92C55.9095 20.92 55.1415 21.1227 54.4375 21.528C53.7335 21.9333 53.1575 22.5307 52.7095 23.32C52.2828 24.088 52.0695 25.0053 52.0695 26.072C52.0695 27.1387 52.2828 28.0773 52.7095 28.888C53.1575 29.6773 53.7335 30.2853 54.4375 30.712C55.1628 31.1387 55.9308 31.352 56.7415 31.352C57.5735 31.352 58.3522 31.1493 59.0775 30.744C59.8028 30.3173 60.3788 29.72 60.8055 28.952C61.2322 28.1627 61.4455 27.224 61.4455 26.136ZM80.317 17.016C81.661 17.016 82.8557 17.3147 83.901 17.912C84.9463 18.488 85.757 19.352 86.333 20.504C86.9303 21.6347 87.229 23 87.229 24.6V35H82.749V25.208C82.749 23.8 82.397 22.7227 81.693 21.976C80.989 21.208 80.029 20.824 78.813 20.824C77.5757 20.824 76.5943 21.208 75.869 21.976C75.165 22.7227 74.813 23.8 74.813 25.208V35H70.333V11.32H74.813V19.48C75.389 18.712 76.157 18.1147 77.117 17.688C78.077 17.24 79.1437 17.016 80.317 17.016ZM90.3372 26.072C90.3372 24.28 90.6892 22.6907 91.3932 21.304C92.1186 19.9173 93.0893 18.8507 94.3053 18.104C95.5426 17.3573 96.9186 16.984 98.4333 16.984C99.7559 16.984 100.908 17.2507 101.889 17.784C102.892 18.3173 103.692 18.9893 104.289 19.8V17.272H108.801V35H104.289V32.408C103.713 33.24 102.913 33.9333 101.889 34.488C100.887 35.0213 99.7239 35.288 98.4013 35.288C96.9079 35.288 95.5426 34.904 94.3053 34.136C93.0893 33.368 92.1186 32.2907 91.3932 30.904C90.6892 29.496 90.3372 27.8853 90.3372 26.072ZM104.289 26.136C104.289 25.048 104.076 24.12 103.649 23.352C103.223 22.5627 102.647 21.9653 101.921 21.56C101.196 21.1333 100.417 20.92 99.5853 20.92C98.7533 20.92 97.9853 21.1227 97.2812 21.528C96.5773 21.9333 96.0013 22.5307 95.5533 23.32C95.1266 24.088 94.9133 25.0053 94.9133 26.072C94.9133 27.1387 95.1266 28.0773 95.5533 28.888C96.0013 29.6773 96.5773 30.2853 97.2812 30.712C98.0066 31.1387 98.7746 31.352 99.5853 31.352C100.417 31.352 101.196 31.1493 101.921 30.744C102.647 30.3173 103.223 29.72 103.649 28.952C104.076 28.1627 104.289 27.224 104.289 26.136ZM130.137 17.272L119.161 43.384H114.393L118.233 34.552L111.129 17.272H116.153L120.729 29.656L125.369 17.272H130.137ZM131.4 26.072C131.4 24.28 131.752 22.6907 132.456 21.304C133.181 19.9173 134.152 18.8507 135.368 18.104C136.605 17.3573 137.981 16.984 139.496 16.984C140.818 16.984 141.97 17.2507 142.952 17.784C143.954 18.3173 144.754 18.9893 145.352 19.8V17.272H149.864V35H145.352V32.408C144.776 33.24 143.976 33.9333 142.952 34.488C141.949 35.0213 140.786 35.288 139.464 35.288C137.97 35.288 136.605 34.904 135.368 34.136C134.152 33.368 133.181 32.2907 132.456 30.904C131.752 29.496 131.4 27.8853 131.4 26.072ZM145.352 26.136C145.352 25.048 145.138 24.12 144.712 23.352C144.285 22.5627 143.709 21.9653 142.984 21.56C142.258 21.1333 141.48 20.92 140.648 20.92C139.816 20.92 139.048 21.1227 138.344 21.528C137.64 21.9333 137.064 22.5307 136.616 23.32C136.189 24.088 135.976 25.0053 135.976 26.072C135.976 27.1387 136.189 28.0773 136.616 28.888C137.064 29.6773 137.64 30.2853 138.344 30.712C139.069 31.1387 139.837 31.352 140.648 31.352C141.48 31.352 142.258 31.1493 142.984 30.744C143.709 30.3173 144.285 29.72 144.712 28.952C145.138 28.1627 145.352 27.224 145.352 26.136ZM159.455 20.952V29.528C159.455 30.1253 159.594 30.5627 159.871 30.84C160.17 31.096 160.661 31.224 161.343 31.224H163.423V35H160.607C156.831 35 154.943 33.1653 154.943 29.496V20.952H152.831V17.272H154.943V12.888H159.455V17.272H163.423V20.952H159.455ZM165.493 26.072C165.493 24.28 165.845 22.6907 166.549 21.304C167.275 19.9173 168.246 18.8507 169.462 18.104C170.699 17.3573 172.075 16.984 173.59 16.984C174.912 16.984 176.064 17.2507 177.046 17.784C178.048 18.3173 178.848 18.9893 179.446 19.8V17.272H183.958V35H179.446V32.408C178.87 33.24 178.07 33.9333 177.046 34.488C176.043 35.0213 174.88 35.288 173.558 35.288C172.064 35.288 170.699 34.904 169.462 34.136C168.246 33.368 167.275 32.2907 166.549 30.904C165.845 29.496 165.493 27.8853 165.493 26.072ZM179.446 26.136C179.446 25.048 179.232 24.12 178.806 23.352C178.379 22.5627 177.803 21.9653 177.078 21.56C176.352 21.1333 175.574 20.92 174.742 20.92C173.91 20.92 173.142 21.1227 172.438 21.528C171.734 21.9333 171.158 22.5307 170.71 23.32C170.283 24.088 170.07 25.0053 170.07 26.072C170.07 27.1387 170.283 28.0773 170.71 28.888C171.158 29.6773 171.734 30.2853 172.438 30.712C173.163 31.1387 173.931 31.352 174.742 31.352C175.574 31.352 176.352 31.1493 177.078 30.744C177.803 30.3173 178.379 29.72 178.806 28.952C179.232 28.1627 179.446 27.224 179.446 26.136Z" fill="white"/>
</svg>
